<?xml version="1.0" standalone="no"?>
<!DOCTYPE svg PUBLIC "-//W3C//DTD SVG 20010904//EN"
 "http://www.w3.org/TR/2001/REC-SVG-20010904/DTD/svg10.dtd">
<svg version="1.0" xmlns="http://www.w3.org/2000/svg"
 width="1000.000000pt" height="1000.000000pt" viewBox="0 0 1000.000000 1000.000000"
 preserveAspectRatio="xMidYMid meet">

<g transform="translate(0.000000,1000.000000) scale(0.100000,-0.100000)"
fill="#000000" stroke="none">
<path d="M7435 7270 c-1122 -471 -2039 -862 -2038 -868 1 -5 86 -189 189 -408
315 -674 925 -1985 927 -1995 2 -8 -493 -613 -498 -607 -1 2 -142 338 -313
748 -552 1325 -1501 3581 -1512 3593 -3 4 -444 -832 -980 -1858 -535 -1026
-976 -1862 -980 -1858 -3 4 -75 166 -159 358 -85 193 -350 796 -591 1340
-1021 2311 -989 2240 -974 2179 11 -48 713 -4045 967 -5512 46 -265 86 -484
88 -486 5 -5 1380 -29 1384 -24 3 3 522 1889 909 3308 124 454 229 833 234
844 5 12 20 -54 44 -195 20 -118 113 -664 207 -1214 94 -550 235 -1386 315
-1858 79 -472 145 -859 147 -861 2 -2 303 -7 669 -10 l665 -7 825 1258 c454
692 825 1265 824 1273 0 8 -272 365 -603 793 -332 428 -600 782 -595 786 5 5
657 484 1449 1066 792 582 1444 1062 1450 1066 6 6 6 9 0 8 -6 -1 -928 -387
-2050 -859z"/>
</g>
</svg>
