<svg id="visual" viewBox="0 0 900 600" width="900" height="600" xmlns="http://www.w3.org/2000/svg" xmlns:xlink="http://www.w3.org/1999/xlink" version="1.1"><rect x="0" y="0" width="900" height="600" fill="#FFFFFF"></rect><path d="M0 473L21.5 472.8C43 472.7 86 472.3 128.8 466.7C171.7 461 214.3 450 257.2 451.8C300 453.7 343 468.3 385.8 479.3C428.7 490.3 471.3 497.7 514.2 495C557 492.3 600 479.7 642.8 471.7C685.7 463.7 728.3 460.3 771.2 456.8C814 453.3 857 449.7 878.5 447.8L900 446L900 601L878.5 601C857 601 814 601 771.2 601C728.3 601 685.7 601 642.8 601C600 601 557 601 514.2 601C471.3 601 428.7 601 385.8 601C343 601 300 601 257.2 601C214.3 601 171.7 601 128.8 601C86 601 43 601 21.5 601L0 601Z" fill="#000000" stroke-linecap="round" stroke-linejoin="miter"></path></svg>